<?xml version="1.0" encoding="UTF-8" standalone="no"?>
<!-- Created with Inkscape (http://www.inkscape.org/) -->

<svg
   xmlns:dc="http://purl.org/dc/elements/1.1/"
   xmlns:cc="http://creativecommons.org/ns#"
   xmlns:rdf="http://www.w3.org/1999/02/22-rdf-syntax-ns#"
   xmlns:svg="http://www.w3.org/2000/svg"
   xmlns="http://www.w3.org/2000/svg"
   xmlns:sodipodi="http://sodipodi.sourceforge.net/DTD/sodipodi-0.dtd"
   xmlns:inkscape="http://www.inkscape.org/namespaces/inkscape"
   version="1.1"
   id="svg2"
   width="156.0058"
   height="171.50462"
   viewBox="0 0 156.0058 171.50462"
   sodipodi:docname="EMRA_Logo.svg"
   inkscape:version="0.92.3 (2405546, 2018-03-11)">
  <metadata
     id="metadata8">
    <rdf:RDF>
      <cc:Work
         rdf:about="">
        <dc:format>image/svg+xml</dc:format>
        <dc:type
           rdf:resource="http://purl.org/dc/dcmitype/StillImage" />
        <dc:title></dc:title>
      </cc:Work>
    </rdf:RDF>
  </metadata>
  <defs
     id="defs6" />
  <sodipodi:namedview
     pagecolor="#ffffff"
     bordercolor="#666666"
     borderopacity="1"
     objecttolerance="10"
     gridtolerance="10"
     guidetolerance="10"
     inkscape:pageopacity="0"
     inkscape:pageshadow="2"
     inkscape:window-width="1920"
     inkscape:window-height="1053"
     id="namedview4"
     showgrid="false"
     inkscape:zoom="2.0939381"
     inkscape:cx="105.11367"
     inkscape:cy="86.931403"
     inkscape:window-x="0"
     inkscape:window-y="27"
     inkscape:window-maximized="1"
     inkscape:current-layer="svg2"
     fit-margin-top="0"
     fit-margin-left="0"
     fit-margin-right="0"
     fit-margin-bottom="0" />
  <path
     style="fill:#003e8a;fill-opacity:0.78039216;stroke-width:0.31999999"
     d="m 57.726666,170.89522 c -0.54476,-0.60195 -0.43185,-1.07831 3.0908,-13.04 2.01091,-6.82837 3.55689,-12.45726 3.43551,-12.50866 -0.12139,-0.0514 -2.39857,1.27543 -5.0604,2.94849 -2.66183,1.67306 -4.83969,2.94943 -4.83969,2.83637 0,-0.11305 1.368,-4.41334 3.04,-9.55618 1.672,-5.14285 3.04,-9.50917 3.04,-9.70294 0,-0.25309 -6.46555,-0.35337 -22.96,-0.3561 -25.179332,-0.004 -24.547548,0.0392 -28.4755438,-1.95454 -4.39023,-2.22837 -7.930026,-7.20744 -8.78838295,-12.36172 -1.158598,-6.95719 2.59306295,-14.25907 8.96374695,-17.446186 2.8641858,-1.4329 5.1198778,-1.91122 8.3842098,-1.7779 2.14703,0.0877 2.52779,0.0283 2.40958,-0.37585 -0.52167,-1.78342 -0.87521,-5.15501 -0.85885,-8.19033 0.04,-7.4191 2.1629,-13.39737 6.80776,-19.171261 1.06118,-1.319127 2.02574,-2.404867 2.14345,-2.412752 0.11772,-0.0079 0.92216,-0.648909 1.78765,-1.424493 l 1.57361,-1.410154 -1.3357,-2.874832 c -0.73464,-1.581158 -1.7288,-4.288137 -2.20925,-6.015507 -0.79962,-2.874861 -0.8732,-3.614637 -0.86937,-8.740675 0.005,-6.156048 0.21731,-7.354925 2.24884,-12.675098 2.12745,-5.571387 6.84321,-11.565208 11.97825,-15.224587 11.41747,-8.136424 26.96534,-8.417789 38.65691,-0.699561 4.62708,3.054585 8.64014,7.504541 12.06309,13.376385 0.2727,0.467805 0.46189,0.493962 1.28,0.176973 0.528,-0.204582 2.472,-0.727917 4.32,-1.16297 4.185454,-0.985324 11.943574,-1.359599 16.031854,-0.773422 15.80775,2.266514 28.88275,11.619387 36.48763,26.10051 6.47171,12.32337 7.70983,26.993854 3.41645,40.481774 -5.47837,17.210686 -18.96923,29.640906 -36.57593,33.700366 -2.76017,0.6364 -3.93189,0.66869 -28.161474,0.77605 l -25.28146,0.11203 -2.13839,6.61925 c -1.17611,3.64059 -2.09547,6.66218 -2.04301,6.71464 0.0525,0.0525 2.21141,-1.2206 4.79766,-2.82901 2.58626,-1.60841 4.76727,-2.8594 4.8467,-2.77997 0.0794,0.0794 -1.93182,7.18 -4.46943,15.77906 -4.97644,16.86339 -5.24393,17.49243 -6.73682,15.8428 z M 63.073856,61.04 c 4.10733,-10.066029 12.20637,-19.440858 21.4203,-24.794518 1.3743,-0.798525 2.49871,-1.540426 2.49869,-1.648672 -1.7e-4,-0.73728 -3.69871,-5.73524 -5.71719,-7.725814 -9.48403,-9.352918 -24.17666,-10.987484 -35.48575,-3.947819 -1.27764,0.795302 -3.47993,2.592117 -4.89397,3.992922 -5.80561,5.751239 -8.62305,12.473683 -8.62305,20.574659 0,4.782196 0.68825,7.8329 2.80693,12.441844 0.88695,1.929452 1.2596,2.444576 1.64945,2.280022 2.976,-1.256189 8.55197,-2.373859 11.82554,-2.370362 3.15819,0.0034 7.53464,0.760173 10.59808,1.832676 1.496,0.523744 2.83598,0.973142 2.97773,0.998662 0.14176,0.02554 0.56622,-0.7096 0.94324,-1.6336 z m 14.86675,102.1561 c -0.45022,-0.35414 -0.90097,-1.03814 -1.00165,-1.52 -0.2329,-1.11453 1.76247,-8.50364 2.52338,-9.34444 1.28054,-1.41498 3.75982,-1.01063 4.6041,0.7509 0.39551,0.8252 0.33354,1.3201 -0.62068,4.95708 -0.815,3.10632 -1.26159,4.2438 -1.93185,4.92036 -1.05206,1.06197 -2.40936,1.15165 -3.5733,0.2361 z m 14.54328,0.13161 c -1.39418,-0.97653 -1.43847,-1.80629 -0.32676,-6.1218 0.56365,-2.18804 1.29453,-4.32113 1.62416,-4.74019 0.80875,-1.02816 2.56562,-1.3405 3.6273,-0.64486 1.5162,0.99345 1.57758,1.84956 0.44881,6.25914 -0.83252,3.25225 -1.19691,4.16451 -1.94927,4.88 -1.05402,1.00237 -2.3235,1.1387 -3.42424,0.36771 z m 15.228994,0.16665 c -0.308,-0.17939 -0.776,-0.74386 -1.03999,-1.25437 -0.44543,-0.86136 -0.40309,-1.22868 0.58796,-5.10138 0.58737,-2.29526 1.32714,-4.4596 1.64392,-4.80964 0.83209,-0.91945 2.54189,-1.1646 3.54382,-0.50811 1.50632,0.98698 1.56562,1.82992 0.44557,6.33447 -0.87094,3.50271 -1.15371,4.20653 -1.9639,4.88827 -0.98643,0.83002 -2.25991,1.00844 -3.21738,0.45076 z m -96.666661,-0.82769 c -0.117333,-0.11734 -0.213333,-0.46879 -0.213333,-0.78103 0,-0.69487 3.962951,-10.77659 4.413,-11.22664 0.55846,-0.55846 1.667,0.0277 1.667,0.88152 0,0.42756 -0.95083,3.15386 -2.112945,6.05843 -1.847651,4.61798 -2.202557,5.28105 -2.826667,5.28105 -0.392547,0 -0.809721,-0.096 -0.927055,-0.21333 z m 11.963767,-0.24607 c -0.33862,-0.40801 -0.05,-1.39907 1.72017,-5.90635 1.16988,-2.97885 2.34966,-5.60082 2.62172,-5.82661 0.55915,-0.46405 1.49944,-0.0605 1.64638,0.70666 0.0469,0.24513 -0.88904,2.8937 -2.08,5.8857 -1.75916,4.4195 -2.29068,5.4579 -2.83337,5.53544 -0.3674,0.0525 -0.85111,-0.12518 -1.0749,-0.39484 z m 12.03623,0.24607 c -0.11733,-0.11734 -0.21333,-0.46522 -0.21333,-0.77308 0,-0.75506 3.82143,-10.58076 4.32733,-11.12648 0.59952,-0.6467 1.75267,-0.1636 1.75267,0.73427 0,0.40604 -0.94809,3.13234 -2.10686,6.05843 -1.85296,4.67906 -2.1936,5.32019 -2.82666,5.32019 -0.3959,0 -0.81581,-0.096 -0.93315,-0.21333 z M 8.3192082,149.84 c -0.218144,-0.41243 0.247089,-1.95135 1.7655008,-5.84 1.133933,-2.904 2.258989,-5.47969 2.500123,-5.72376 0.509594,-0.51579 1.376036,-0.27626 1.657927,0.45834 0.184942,0.48195 -3.457905,10.41527 -4.131369,11.26542 -0.4587218,0.57907 -1.4479858,0.49075 -1.7921818,-0.16 z m 12.0216978,0.36136 c -0.12541,-0.12541 -0.22802,-0.44706 -0.22802,-0.71476 0,-0.9325 4.20908,-11.19696 4.66288,-11.3711 0.60034,-0.23037 1.32458,0.0618 1.53912,0.62086 0.0943,0.24578 -0.81173,2.93464 -2.01343,5.97526 -1.93063,4.88498 -2.27497,5.5394 -2.95872,5.62307 -0.42559,0.0521 -0.87641,-0.008 -1.00183,-0.13333 z m 11.94798,-0.26208 c -0.30607,-0.36879 0.0411,-1.53406 1.73986,-5.84 1.16722,-2.9586 2.31848,-5.57897 2.55836,-5.82304 0.50612,-0.51495 1.37369,-0.27644 1.65429,0.4548 0.18062,0.47066 -3.4613,10.3832 -4.14026,11.26896 -0.41195,0.53742 -1.34169,0.50627 -1.81225,-0.0607 z m 12.05203,0.26208 c -0.12542,-0.12541 -0.22803,-0.45013 -0.22803,-0.7216 0,-0.94809 4.19414,-11.18439 4.65507,-11.36126 0.60168,-0.23089 1.33078,0.0546 1.54144,0.60356 0.0913,0.23792 -0.81382,2.92679 -2.01137,5.97526 -1.92851,4.90919 -2.26604,5.5535 -2.95323,5.63737 -0.42672,0.0521 -0.87847,-0.008 -1.00388,-0.13333 z m 29.03743,-0.90682 c -0.49766,-0.49765 -0.78546,-1.1506 -0.78546,-1.78201 0,-1.24058 1.48121,-7.15459 2.08375,-8.31979 0.91003,-1.7598 3.40053,-1.97102 4.64131,-0.39362 0.83706,1.06414 0.8126,1.44258 -0.38615,5.97308 -1.16342,4.397 -1.78441,5.3078 -3.61891,5.3078 -0.79336,0 -1.39225,-0.24316 -1.93454,-0.78546 z m 14.45769,0.12223 c -1.12197,-0.88254 -1.10226,-2.09952 0.10909,-6.73377 0.98208,-3.75717 1.4797,-4.55803 3.08195,-4.96018 1.03342,-0.25937 2.7212,0.78336 3.09809,1.91402 0.42436,1.27308 -1.51788,8.69384 -2.54484,9.72316 -0.92191,0.92403 -2.60923,0.94961 -3.74429,0.0568 z m 14.400014,0 c -1.12758,-0.88694 -1.10275,-2.31829 0.1189,-6.85677 0.97453,-3.62038 1.4961,-4.44162 3.07214,-4.83718 1.01825,-0.25556 2.71923,0.77748 3.08451,1.8733 0.41471,1.24414 -1.53524,8.76492 -2.53154,9.76388 -0.92158,0.92404 -2.60893,0.94963 -3.74401,0.0568 z m 14.56784,0.15094 c -1.37674,-0.96431 -1.4236,-1.7862 -0.34202,-6.00015 1.14142,-4.44716 1.45543,-5.06949 2.84918,-5.6468 0.86209,-0.35709 1.16733,-0.3413 2.11205,0.1092 1.82847,0.87194 1.91944,1.66642 0.73588,6.42641 -0.79354,3.19142 -1.21631,4.32316 -1.82608,4.88827 -0.93555,0.86704 -2.47104,0.9641 -3.52901,0.22307 z M 14.17834,57.454544 c -0.848038,-0.848038 -0.966107,-1.577728 -0.46749,-2.88919 0.4094,-1.076804 1.920216,-1.701236 4.753206,-1.964535 2.10805,-0.19592 2.27715,-0.161584 3.06009,0.621354 1.80083,1.800822 0.70916,4.056429 -2.25094,4.650902 -2.9174,0.585895 -4.19543,0.480909 -5.094866,-0.418531 z M 23.535396,24.78382 c -2.01471,-1.351566 -2.78251,-2.330944 -2.78251,-3.549267 0,-0.823335 1.79039,-2.354553 2.75307,-2.354553 0.98378,0 4.78005,2.327621 5.26053,3.225409 0.61184,1.143234 0.36105,2.765149 -0.53676,3.471365 -1.26186,0.992587 -2.29213,0.818557 -4.69433,-0.792954 z m 59.82064,-9.767046 c -1.35556,-1.06629 -1.17138,-2.676573 0.5952,-5.203689 1.35355,-1.936268 2.0641,-2.438236 3.46626,-2.448716 0.81843,-0.0061 2.45539,1.719728 2.45539,2.588706 0,0.849334 -2.35909,4.589908 -3.31859,5.261974 -0.93689,0.656216 -2.21248,0.577136 -3.19826,-0.198275 z m -31.40777,-6.77958 c -0.65015,-0.559237 -0.94377,-1.265284 -1.29747,-3.12 -0.58898,-3.088458 -0.59863,-2.980853 0.37053,-4.132642 C 51.638256,0.251375 52.119426,0 52.905876,0 c 1.63157,0 2.39336,0.842312 2.90013,3.206677 0.66154,3.086391 0.59675,3.752689 -0.46851,4.817938 -1.12792,1.127924 -2.24372,1.197909 -3.38923,0.212579 z"
     id="path836"
     inkscape:connector-curvature="0"
     sodipodi:nodetypes="sscssssccssscsscscsssssssscssscscscscsssccsssssccscscccccccssccsssccccsccccscssscccccscccscscsccsccsccscccccccccscccscsscccsscssccsccsccccccsccccscsccsscssssssssssscscscscsscc" />
</svg>
