<?xml version="1.0" encoding="UTF-8" standalone="no"?>
<!DOCTYPE svg PUBLIC "-//W3C//DTD SVG 1.0//EN" "http://www.w3.org/TR/2001/PR-SVG-20010719/DTD/svg10.dtd">
<svg width="32cm" height="34cm" viewBox="138 -82 623 663" xmlns="http://www.w3.org/2000/svg" xmlns:xlink="http://www.w3.org/1999/xlink">
  <g id="Background">
    <text font-size="12.8" style="fill: #f40000; fill-opacity: 1; stroke: none;text-anchor:start;font-family:sans-serif;font-style:normal;font-weight:normal" x="697.978" y="171.698">
      <tspan x="697.978" y="171.698"></tspan>
    </text>
    <g>
      <rect style="fill: #ffffff; fill-opacity: 1; stroke-opacity: 1; stroke-width: 3; stroke-dasharray: 4; stroke: #f40000" x="140" y="-80" width="300" height="120" rx="0" ry="0"/>
      <text font-size="12.8" style="fill: #f40000; fill-opacity: 1; stroke: none;text-anchor:middle;font-family:sans-serif;font-style:normal;font-weight:700" x="290" y="-56.1">
        <tspan x="290" y="-56.1">Rasters containing the dates of</tspan>
        <tspan x="290" y="-40.1">Phenological changes</tspan>
        <tspan x="290" y="-24.1"></tspan>
        <tspan x="290" y="-8.1"></tspan>
        <tspan x="290" y="7.9"></tspan>
        <tspan x="290" y="23.9"></tspan>
      </text>
    </g>
    <g>
      <rect style="fill: #ffffff; fill-opacity: 1; stroke-opacity: 1; stroke-width: 3; stroke-dasharray: 4; stroke: #0000ff" x="140" y="60" width="300" height="39" rx="0" ry="0"/>
      <text font-size="12.8" style="fill: #0000ff; fill-opacity: 1; stroke: none;text-anchor:middle;font-family:sans-serif;font-style:normal;font-weight:700" x="290" y="83.4">
        <tspan x="290" y="83.4">Function to create velox objects</tspan>
      </text>
    </g>
    <g>
      <rect style="fill: #ffffff; fill-opacity: 1; stroke-opacity: 1; stroke-width: 3; stroke: #f40000" x="160" y="-20" width="247.2" height="55" rx="0" ry="0"/>
      <text font-size="12.8" style="fill: #f40000; fill-opacity: 1; stroke: none;text-anchor:middle;font-family:sans-serif;font-style:normal;font-weight:normal" x="283.6" y="3.4">
        <tspan x="283.6" y="3.4">DOY_[Crop ID]_[Phase ID]_[Year].tif</tspan>
        <tspan x="283.6" y="19.4">...</tspan>
      </text>
    </g>
    <g>
      <rect style="fill: #ffffff; fill-opacity: 1; stroke-opacity: 1; stroke-width: 3; stroke-dasharray: 4; stroke: #f40000" x="140" y="120" width="298.45" height="120" rx="0" ry="0"/>
      <text font-size="12.8" style="fill: #f40000; fill-opacity: 1; stroke: none;text-anchor:middle;font-family:sans-serif;font-style:normal;font-weight:700" x="289.225" y="143.9">
        <tspan x="289.225" y="143.9">Velox objects containing all </tspan>
        <tspan x="289.225" y="159.9">the raster that concern the same crop</tspan>
        <tspan x="289.225" y="175.9"></tspan>
        <tspan x="289.225" y="191.9"></tspan>
        <tspan x="289.225" y="207.9"></tspan>
        <tspan x="289.225" y="223.9"></tspan>
      </text>
    </g>
    <g>
      <rect style="fill: #ffffff; fill-opacity: 1; stroke-opacity: 1; stroke-width: 3; stroke: #f40000" x="160" y="180" width="260" height="55" rx="0" ry="0"/>
      <text font-size="12.8" style="fill: #f40000; fill-opacity: 1; stroke: none;text-anchor:middle;font-family:sans-serif;font-style:normal;font-weight:normal" x="290" y="203.4">
        <tspan x="290" y="203.4">DOY_[Crop ID].tif</tspan>
        <tspan x="290" y="219.4">...</tspan>
      </text>
    </g>
    <g>
      <line style="fill: none; stroke-opacity: 1; stroke-width: 3; stroke: #000000" x1="290" y1="40" x2="290" y2="49.1459"/>
      <polygon style="fill: #000000; fill-opacity: 1; stroke-opacity: 1; stroke-width: 3; stroke: #000000" fill-rule="evenodd" points="290,56.6459 285,46.6459 290,49.1459 295,46.6459 "/>
    </g>
    <g>
      <line style="fill: none; stroke-opacity: 1; stroke-width: 3; stroke: #000000" x1="290" y1="99" x2="289.625" y2="109.153"/>
      <polygon style="fill: #000000; fill-opacity: 1; stroke-opacity: 1; stroke-width: 3; stroke: #000000" fill-rule="evenodd" points="289.348,116.648 284.721,106.47 289.625,109.153 294.714,106.84 "/>
    </g>
    <g>
      <rect style="fill: #ffffff; fill-opacity: 1; stroke-opacity: 1; stroke-width: 3; stroke-dasharray: 4; stroke: #0000ff" x="140" y="260" width="300" height="320" rx="0" ry="0"/>
      <text font-size="12.8" style="fill: #0000ff; fill-opacity: 1; stroke: none;text-anchor:middle;font-family:sans-serif;font-style:normal;font-weight:700" x="290" y="287.9">
        <tspan x="290" y="287.9">Shiny Server</tspan>
        <tspan x="290" y="303.9"></tspan>
        <tspan x="290" y="319.9"></tspan>
        <tspan x="290" y="335.9"></tspan>
        <tspan x="290" y="351.9"></tspan>
        <tspan x="290" y="367.9"></tspan>
        <tspan x="290" y="383.9"></tspan>
        <tspan x="290" y="399.9"></tspan>
        <tspan x="290" y="415.9"></tspan>
        <tspan x="290" y="431.9"></tspan>
        <tspan x="290" y="447.9"></tspan>
        <tspan x="290" y="463.9"></tspan>
        <tspan x="290" y="479.9"></tspan>
        <tspan x="290" y="495.9"></tspan>
        <tspan x="290" y="511.9"></tspan>
        <tspan x="290" y="527.9"></tspan>
        <tspan x="290" y="543.9"></tspan>
        <tspan x="290" y="559.9"></tspan>
      </text>
    </g>
    <g>
      <rect style="fill: #ffffff; fill-opacity: 1; stroke-opacity: 1; stroke-width: 3; stroke-dasharray: 4; stroke: #098809" x="460" y="260" width="300" height="320" rx="0" ry="0"/>
      <text font-size="12.8" style="fill: #098809; fill-opacity: 1; stroke: none;text-anchor:middle;font-family:sans-serif;font-style:normal;font-weight:700" x="610" y="287.9">
        <tspan x="610" y="287.9">Shiny User Interface</tspan>
        <tspan x="610" y="303.9"></tspan>
        <tspan x="610" y="319.9"></tspan>
        <tspan x="610" y="335.9"></tspan>
        <tspan x="610" y="351.9"></tspan>
        <tspan x="610" y="367.9"></tspan>
        <tspan x="610" y="383.9"></tspan>
        <tspan x="610" y="399.9"></tspan>
        <tspan x="610" y="415.9"></tspan>
        <tspan x="610" y="431.9"></tspan>
        <tspan x="610" y="447.9"></tspan>
        <tspan x="610" y="463.9"></tspan>
        <tspan x="610" y="479.9"></tspan>
        <tspan x="610" y="495.9"></tspan>
        <tspan x="610" y="511.9"></tspan>
        <tspan x="610" y="527.9"></tspan>
        <tspan x="610" y="543.9"></tspan>
        <tspan x="610" y="559.9"></tspan>
      </text>
    </g>
    <g>
      <rect style="fill: #ffffff; fill-opacity: 1; stroke-opacity: 1; stroke-width: 3; stroke: #098809" x="500" y="300" width="220" height="39" rx="0" ry="0"/>
      <text font-size="12.8" style="fill: #098809; fill-opacity: 1; stroke: none;text-anchor:middle;font-family:sans-serif;font-style:normal;font-weight:normal" x="610" y="323.4">
        <tspan x="610" y="323.4">Select a Crop</tspan>
      </text>
    </g>
    <g>
      <rect style="fill: #ffffff; fill-opacity: 1; stroke-opacity: 1; stroke-width: 3; stroke: #098809" x="500" y="340" width="220" height="39" rx="0" ry="0"/>
      <text font-size="12.8" style="fill: #098809; fill-opacity: 1; stroke: none;text-anchor:middle;font-family:sans-serif;font-style:normal;font-weight:normal" x="610" y="363.4">
        <tspan x="610" y="363.4">Upload spatial features</tspan>
      </text>
    </g>
    <g>
      <rect style="fill: #ffffff; fill-opacity: 1; stroke-opacity: 1; stroke-width: 3; stroke: #0000ff" x="160" y="300" width="260" height="39" rx="0" ry="0"/>
      <text font-size="12.8" style="fill: #0000ff; fill-opacity: 1; stroke: none;text-anchor:middle;font-family:sans-serif;font-style:normal;font-weight:normal" x="290" y="323.4">
        <tspan x="290" y="323.4">extraction of DOY</tspan>
      </text>
    </g>
    <g>
      <rect style="fill: #ffffff; fill-opacity: 1; stroke-opacity: 1; stroke-width: 3; stroke: #0000ff" x="160" y="520" width="260" height="39" rx="0" ry="0"/>
      <text font-size="12.8" style="fill: #0000ff; fill-opacity: 1; stroke: none;text-anchor:middle;font-family:sans-serif;font-style:normal;font-weight:normal" x="290" y="543.4">
        <tspan x="290" y="543.4">Creation of the graph</tspan>
      </text>
    </g>
    <g>
      <rect style="fill: #ffffff; fill-opacity: 1; stroke-opacity: 1; stroke-width: 3; stroke: #098809" x="500" y="400" width="220" height="39" rx="0" ry="0"/>
      <text font-size="12.8" style="fill: #098809; fill-opacity: 1; stroke: none;text-anchor:middle;font-family:sans-serif;font-style:normal;font-weight:normal" x="610" y="423.4">
        <tspan x="610" y="423.4">Download Data set</tspan>
      </text>
    </g>
    <g>
      <rect style="fill: #ffffff; fill-opacity: 1; stroke-opacity: 1; stroke-width: 3; stroke: #098809" x="500" y="460" width="220" height="39" rx="0" ry="0"/>
      <text font-size="12.8" style="fill: #098809; fill-opacity: 1; stroke: none;text-anchor:middle;font-family:sans-serif;font-style:normal;font-weight:normal" x="610" y="483.4">
        <tspan x="610" y="483.4">Select time range</tspan>
      </text>
    </g>
    <g>
      <rect style="fill: #ffffff; fill-opacity: 1; stroke-opacity: 1; stroke-width: 3; stroke: #098809" x="500" y="520" width="220" height="39" rx="0" ry="0"/>
      <text font-size="12.8" style="fill: #098809; fill-opacity: 1; stroke: none;text-anchor:middle;font-family:sans-serif;font-style:normal;font-weight:normal" x="610" y="543.4">
        <tspan x="610" y="543.4">Print Graph</tspan>
      </text>
    </g>
    <g>
      <rect style="fill: #ffffff; fill-opacity: 1; stroke-opacity: 1; stroke-width: 3; stroke: #0000ff" x="160" y="380" width="260" height="39" rx="0" ry="0"/>
      <text font-size="12.8" style="fill: #0000ff; fill-opacity: 1; stroke: none;text-anchor:middle;font-family:sans-serif;font-style:normal;font-weight:normal" x="290" y="403.4">
        <tspan x="290" y="403.4">Processing of the data for the graph</tspan>
      </text>
    </g>
    <g>
      <rect style="fill: #ffffff; fill-opacity: 1; stroke-opacity: 1; stroke-width: 3; stroke: #0000ff" x="160" y="440" width="260" height="55" rx="0" ry="0"/>
      <text font-size="12.8" style="fill: #0000ff; fill-opacity: 1; stroke: none;text-anchor:middle;font-family:sans-serif;font-style:normal;font-weight:normal" x="290" y="463.4">
        <tspan x="290" y="463.4">Restriction of the data to </tspan>
        <tspan x="290" y="479.4">the selected Time range</tspan>
      </text>
    </g>
    <g>
      <rect style="fill: #ffffff; fill-opacity: 1; stroke-opacity: 1; stroke-width: 3; stroke: #000000" x="460" y="-80" width="300" height="320" rx="0" ry="0"/>
      <text font-size="12.8" style="fill: #000000; fill-opacity: 1; stroke: none;text-anchor:middle;font-family:sans-serif;font-style:normal;font-weight:700" x="610" y="-52.1">
        <tspan x="610" y="-52.1">LEGENDE</tspan>
        <tspan x="610" y="-36.1"></tspan>
        <tspan x="610" y="-20.1"></tspan>
        <tspan x="610" y="-4.1"></tspan>
        <tspan x="610" y="11.9"></tspan>
        <tspan x="610" y="27.9"></tspan>
        <tspan x="610" y="43.9"></tspan>
        <tspan x="610" y="59.9"></tspan>
        <tspan x="610" y="75.9"></tspan>
        <tspan x="610" y="91.9"></tspan>
        <tspan x="610" y="107.9"></tspan>
        <tspan x="610" y="123.9"></tspan>
        <tspan x="610" y="139.9"></tspan>
        <tspan x="610" y="155.9"></tspan>
        <tspan x="610" y="171.9"></tspan>
        <tspan x="610" y="187.9"></tspan>
        <tspan x="610" y="203.9"></tspan>
        <tspan x="610" y="219.9"></tspan>
      </text>
    </g>
    <g>
      <line style="fill: none; stroke-opacity: 1; stroke-width: 3; stroke: #000000" x1="500" y1="300" x2="427.1" y2="215.71"/>
      <polygon style="fill: #000000; fill-opacity: 1; stroke-opacity: 1; stroke-width: 3; stroke: #000000" fill-rule="evenodd" points="422.194,210.037 432.517,214.33 427.1,215.71 424.954,220.871 "/>
    </g>
    <g>
      <line style="fill: none; stroke-opacity: 1; stroke-width: 3; stroke: #000000" x1="225" y1="235" x2="225" y2="289.146"/>
      <polygon style="fill: #000000; fill-opacity: 1; stroke-opacity: 1; stroke-width: 3; stroke: #000000" fill-rule="evenodd" points="225,296.646 220,286.646 225,289.146 230,286.646 "/>
    </g>
    <g>
      <line style="fill: none; stroke-opacity: 1; stroke-width: 3; stroke: #000000" x1="290" y1="339" x2="290" y2="369.146"/>
      <polygon style="fill: #000000; fill-opacity: 1; stroke-opacity: 1; stroke-width: 3; stroke: #000000" fill-rule="evenodd" points="290,376.646 285,366.646 290,369.146 295,366.646 "/>
    </g>
    <g>
      <line style="fill: none; stroke-opacity: 1; stroke-width: 3; stroke: #000000" x1="500" y1="359.5" x2="428.709" y2="306.478"/>
      <polygon style="fill: #000000; fill-opacity: 1; stroke-opacity: 1; stroke-width: 3; stroke: #000000" fill-rule="evenodd" points="422.691,302.002 433.699,303.958 428.709,306.478 427.731,311.982 "/>
    </g>
    <g>
      <line style="fill: none; stroke-opacity: 1; stroke-width: 3; stroke: #000000" x1="290" y1="420" x2="290" y2="429.146"/>
      <polygon style="fill: #000000; fill-opacity: 1; stroke-opacity: 1; stroke-width: 3; stroke: #000000" fill-rule="evenodd" points="290,436.646 285,426.646 290,429.146 295,426.646 "/>
    </g>
    <g>
      <line style="fill: none; stroke-opacity: 1; stroke-width: 3; stroke: #000000" x1="290" y1="495" x2="290" y2="509.146"/>
      <polygon style="fill: #000000; fill-opacity: 1; stroke-opacity: 1; stroke-width: 3; stroke: #000000" fill-rule="evenodd" points="290,516.646 285,506.646 290,509.146 295,506.646 "/>
    </g>
    <g>
      <line style="fill: none; stroke-opacity: 1; stroke-width: 3; stroke: #000000" x1="420" y1="399.5" x2="489.47" y2="416.867"/>
      <polygon style="fill: #000000; fill-opacity: 1; stroke-opacity: 1; stroke-width: 3; stroke: #000000" fill-rule="evenodd" points="496.746,418.687 485.832,421.112 489.47,416.867 488.257,411.41 "/>
    </g>
    <g>
      <line style="fill: none; stroke-opacity: 1; stroke-width: 3; stroke: #000000" x1="500" y1="479.5" x2="430.734" y2="469.11"/>
      <polygon style="fill: #000000; fill-opacity: 1; stroke-opacity: 1; stroke-width: 3; stroke: #000000" fill-rule="evenodd" points="423.317,467.998 433.948,464.536 430.734,469.11 432.465,474.426 "/>
    </g>
    <g>
      <line style="fill: none; stroke-opacity: 1; stroke-width: 3; stroke: #000000" x1="420" y1="539.5" x2="489.146" y2="539.5"/>
      <polygon style="fill: #000000; fill-opacity: 1; stroke-opacity: 1; stroke-width: 3; stroke: #000000" fill-rule="evenodd" points="496.646,539.5 486.646,544.5 489.146,539.5 486.646,534.5 "/>
    </g>
    <g>
      <rect style="fill: #ffffff; fill-opacity: 1; stroke-opacity: 1; stroke-width: 3; stroke: #000000" x="460" y="-30" width="140" height="270" rx="0" ry="0"/>
      <text font-size="12.8" style="fill: #000000; fill-opacity: 1; stroke: none;text-anchor:middle;font-family:sans-serif;font-style:normal;font-weight:700" x="530" y="-3.1">
        <tspan x="530" y="-3.1">Main elements</tspan>
        <tspan x="530" y="12.9">of the app</tspan>
        <tspan x="530" y="28.9"></tspan>
        <tspan x="530" y="44.9"></tspan>
        <tspan x="530" y="60.9"></tspan>
        <tspan x="530" y="76.9"></tspan>
        <tspan x="530" y="92.9"></tspan>
        <tspan x="530" y="108.9"></tspan>
        <tspan x="530" y="124.9"></tspan>
        <tspan x="530" y="140.9"></tspan>
        <tspan x="530" y="156.9"></tspan>
        <tspan x="530" y="172.9"></tspan>
        <tspan x="530" y="188.9"></tspan>
        <tspan x="530" y="204.9"></tspan>
        <tspan x="530" y="220.9"></tspan>
      </text>
    </g>
    <g>
      <rect style="fill: #ffffff; fill-opacity: 1; stroke-opacity: 1; stroke-width: 3; stroke-dasharray: 4; stroke: #098809" x="490" y="150" width="100" height="55" rx="0" ry="0"/>
      <text font-size="12.8" style="fill: #098809; fill-opacity: 1; stroke: none;text-anchor:middle;font-family:sans-serif;font-style:normal;font-weight:700" x="540" y="173.4">
        <tspan x="540" y="173.4">Web </tspan>
        <tspan x="540" y="189.4">interface</tspan>
      </text>
    </g>
    <g>
      <rect style="fill: #ffffff; fill-opacity: 1; stroke-opacity: 1; stroke-width: 3; stroke-dasharray: 4; stroke: #0000ff" x="490" y="90" width="99" height="39" rx="0" ry="0"/>
      <text font-size="12.8" style="fill: #0000ff; fill-opacity: 1; stroke: none;text-anchor:middle;font-family:sans-serif;font-style:normal;font-weight:700" x="539.5" y="113.4">
        <tspan x="539.5" y="113.4">R program</tspan>
      </text>
    </g>
    <g>
      <rect style="fill: #ffffff; fill-opacity: 1; stroke-opacity: 1; stroke-width: 3; stroke-dasharray: 4; stroke: #f40000" x="490" y="30" width="100" height="39" rx="0" ry="0"/>
      <text font-size="12.8" style="fill: #f40000; fill-opacity: 1; stroke: none;text-anchor:middle;font-family:sans-serif;font-style:normal;font-weight:700" x="540" y="53.4">
        <tspan x="540" y="53.4">Hard disk</tspan>
      </text>
    </g>
    <g>
      <rect style="fill: #ffffff; fill-opacity: 1; stroke-opacity: 1; stroke-width: 3; stroke: #000000" x="600" y="-30" width="160" height="190" rx="0" ry="0"/>
      <text font-size="12.8" style="fill: #000000; fill-opacity: 1; stroke: none;text-anchor:middle;font-family:sans-serif;font-style:normal;font-weight:700" x="680" y="-3.1">
        <tspan x="680" y="-3.1">Subcomponents</tspan>
        <tspan x="680" y="12.9">of each element</tspan>
        <tspan x="680" y="28.9"></tspan>
        <tspan x="680" y="44.9"></tspan>
        <tspan x="680" y="60.9"></tspan>
        <tspan x="680" y="76.9"></tspan>
        <tspan x="680" y="92.9"></tspan>
        <tspan x="680" y="108.9"></tspan>
        <tspan x="680" y="124.9"></tspan>
        <tspan x="680" y="140.9"></tspan>
      </text>
    </g>
    <g>
      <rect style="fill: #ffffff; fill-opacity: 1; stroke-opacity: 1; stroke-width: 3; stroke: #ff0000" x="620" y="20" width="108.4" height="39" rx="0" ry="0"/>
      <text font-size="12.8" style="fill: #ff0000; fill-opacity: 1; stroke: none;text-anchor:middle;font-family:sans-serif;font-style:normal;font-weight:normal" x="674.2" y="43.4">
        <tspan x="674.2" y="43.4"></tspan>
      </text>
    </g>
    <g>
      <rect style="fill: #ffffff; fill-opacity: 1; stroke-opacity: 1; stroke-width: 3; stroke: #0000ff" x="620" y="60" width="108.4" height="39" rx="0" ry="0"/>
      <text font-size="12.8" style="fill: #0000ff; fill-opacity: 1; stroke: none;text-anchor:middle;font-family:sans-serif;font-style:normal;font-weight:normal" x="674.2" y="83.4">
        <tspan x="674.2" y="83.4"></tspan>
      </text>
    </g>
    <g>
      <rect style="fill: #ffffff; fill-opacity: 1; stroke-opacity: 1; stroke-width: 3; stroke: #098809" x="620" y="100" width="108.4" height="39" rx="0" ry="0"/>
      <text font-size="12.8" style="fill: #098809; fill-opacity: 1; stroke: none;text-anchor:middle;font-family:sans-serif;font-style:normal;font-weight:normal" x="674.2" y="123.4">
        <tspan x="674.2" y="123.4"></tspan>
      </text>
    </g>
    <g>
      <line style="fill: none; stroke-opacity: 1; stroke-width: 3; stroke: #000000" x1="620" y1="220" x2="620" y2="180.854"/>
      <polygon style="fill: #000000; fill-opacity: 1; stroke-opacity: 1; stroke-width: 3; stroke: #000000" fill-rule="evenodd" points="620,173.354 625,183.354 620,180.854 615,183.354 "/>
    </g>
    <text font-size="12.8" style="fill: #000000; fill-opacity: 1; stroke: none;text-anchor:start;font-family:sans-serif;font-style:normal;font-weight:normal" x="610" y="80">
      <tspan x="610" y="80"></tspan>
    </text>
    <text font-size="12.8" style="fill: #000000; fill-opacity: 1; stroke: none;text-anchor:start;font-family:sans-serif;font-style:normal;font-weight:700" x="630" y="180">
      <tspan x="630" y="180">Output</tspan>
    </text>
    <text font-size="12.8" style="fill: #000000; fill-opacity: 1; stroke: none;text-anchor:start;font-family:sans-serif;font-style:normal;font-weight:700" x="630" y="220">
      <tspan x="630" y="220">Input</tspan>
    </text>
    <text font-size="12.7998" style="fill: #000000; fill-opacity: 1; stroke: none;text-anchor:start;font-family:sans-serif;font-style:normal;font-weight:normal" x="290" y="79.5">
      <tspan x="290" y="79.5"></tspan>
    </text>
  </g>
</svg>
